<svg width="32" height="32" viewBox="0 0 32 32" fill="none" xmlns="http://www.w3.org/2000/svg">
<path fill-rule="evenodd" clip-rule="evenodd" d="M9.39131 20.7205C8.86989 21.2419 8.86989 22.0873 9.39131 22.6087C9.91273 23.1301 10.7581 23.1301 11.2795 22.6087L16.0002 17.888L20.7211 22.6089C21.2425 23.1303 22.0879 23.1303 22.6093 22.6089C23.1308 22.0874 23.1308 21.2421 22.6093 20.7206L17.8885 15.9998L22.6089 11.2793C23.1304 10.7579 23.1304 9.91249 22.6089 9.39107C22.0875 8.86964 21.2421 8.86964 20.7207 9.39107L16.0002 14.1115L11.2799 9.39124C10.7585 8.86982 9.91312 8.86982 9.3917 9.39124C8.87027 9.91267 8.87027 10.7581 9.3917 11.2795L14.112 15.9998L9.39131 20.7205Z" fill="#111111"/>
</svg>
