<svg width="56" height="56" viewBox="0 0 56 56" fill="none" xmlns="http://www.w3.org/2000/svg">
<path fill-rule="evenodd" clip-rule="evenodd" d="M11.0054 40.1386C9.66455 41.4794 9.66455 43.6533 11.0054 44.9941C12.3462 46.3349 14.5201 46.3349 15.8609 44.9941L27.9995 32.8554L40.1386 44.9945C41.4794 46.3353 43.6533 46.3353 44.9941 44.9945C46.3349 43.6537 46.3349 41.4799 44.9941 40.139L32.855 27.9999L44.9939 15.8611C46.3347 14.5203 46.3347 12.3464 44.9939 11.0056C43.6531 9.6648 41.4792 9.6648 40.1384 11.0056L27.9995 23.1444L15.8611 11.0061C14.5203 9.66526 12.3464 9.66526 11.0056 11.0061C9.66482 12.3469 9.66481 14.5208 11.0056 15.8616L23.144 27.9999L11.0054 40.1386Z" fill="#111111"/>
</svg>
