<svg width="16" height="16" viewBox="0 0 16 16" fill="none" xmlns="http://www.w3.org/2000/svg">
<path d="M1.33341 2.84667L2.18675 2L13.3334 13.1467L12.4867 14L10.4334 11.9467C9.66675 12.2 8.85341 12.3333 8.00008 12.3333C4.66675 12.3333 1.82008 10.26 0.666748 7.33333C1.12675 6.16 1.86008 5.12667 2.79341 4.30667L1.33341 2.84667ZM8.00008 5.33333C8.53051 5.33333 9.03922 5.54405 9.4143 5.91912C9.78937 6.29419 10.0001 6.8029 10.0001 7.33333C10.0001 7.56667 9.96008 7.79333 9.88675 8L7.33342 5.44667C7.54008 5.37333 7.76675 5.33333 8.00008 5.33333ZM8.00008 2.33333C11.3334 2.33333 14.1801 4.40667 15.3334 7.33333C14.7867 8.72 13.8601 9.92 12.6667 10.7933L11.7201 9.84C12.6267 9.21333 13.3734 8.36 13.8801 7.33333C12.7801 5.09333 10.5067 3.66667 8.00008 3.66667C7.27342 3.66667 6.56008 3.78667 5.89341 4L4.86675 2.98C5.82675 2.56667 6.88675 2.33333 8.00008 2.33333ZM2.12008 7.33333C3.22008 9.57333 5.49341 11 8.00008 11C8.46008 11 8.91341 10.9533 9.33342 10.86L7.81342 9.33333C6.86008 9.23333 6.10008 8.47333 6.00008 7.52L3.73341 5.24667C3.07341 5.81333 2.52008 6.52 2.12008 7.33333Z" fill="black"/>
</svg>
