<svg width="16" height="16" viewBox="0 0 16 16" fill="none" xmlns="http://www.w3.org/2000/svg">
<path d="M8.00008 6C8.53051 6 9.03922 6.21071 9.4143 6.58579C9.78937 6.96086 10.0001 7.46957 10.0001 8C10.0001 8.53043 9.78937 9.03914 9.4143 9.41421C9.03922 9.78929 8.53051 10 8.00008 10C7.46965 10 6.96094 9.78929 6.58587 9.41421C6.21079 9.03914 6.00008 8.53043 6.00008 8C6.00008 7.46957 6.21079 6.96086 6.58587 6.58579C6.96094 6.21071 7.46965 6 8.00008 6ZM8.00008 3C11.3334 3 14.1801 5.07333 15.3334 8C14.1801 10.9267 11.3334 13 8.00008 13C4.66675 13 1.82008 10.9267 0.666748 8C1.82008 5.07333 4.66675 3 8.00008 3ZM2.12008 8C3.22008 10.24 5.49341 11.6667 8.00008 11.6667C10.5067 11.6667 12.7801 10.24 13.8801 8C12.7801 5.76 10.5067 4.33333 8.00008 4.33333C5.49341 4.33333 3.22008 5.76 2.12008 8Z" fill="black"/>
</svg>
