<svg width="24" height="24" viewBox="0 0 24 24" fill="none" xmlns="http://www.w3.org/2000/svg">
<path fill-rule="evenodd" clip-rule="evenodd" d="M3.50256 18.0692C2.83215 18.7396 2.83215 19.8265 3.50256 20.4969C4.17296 21.1673 5.2599 21.1673 5.93031 20.4969L11.9999 14.4273L18.0699 20.4972C18.7403 21.1676 19.8272 21.1676 20.4976 20.4972C21.168 19.8268 21.168 18.7399 20.4976 18.0695L14.4277 11.9995L20.4968 5.93043C21.1672 5.26002 21.1672 4.17309 20.4968 3.50268C19.8264 2.83228 18.7395 2.83228 18.0691 3.50268L11.9999 9.57179L5.93113 3.50299C5.26072 2.83258 4.17378 2.83258 3.50338 3.50299C2.83297 4.17339 2.83297 5.26033 3.50338 5.93074L9.57219 11.9995L3.50256 18.0692Z" fill="#111111"/>
</svg>
