<svg width="24" height="24" viewBox="0 0 24 24" fill="none" xmlns="http://www.w3.org/2000/svg">
<path d="M12.0001 11C12.2653 11 12.5197 11.1053 12.7072 11.2929C12.8947 11.4804 13.0001 11.7348 13.0001 12C13.0001 12.2652 12.8947 12.5196 12.7072 12.7071C12.5197 12.8946 12.2653 13 12.0001 13C11.7349 13 11.4805 12.8946 11.293 12.7071C11.1055 12.5196 11.0001 12.2652 11.0001 12C11.0001 11.7348 11.1055 11.4804 11.293 11.2929C11.4805 11.1053 11.7349 11 12.0001 11ZM4.2201 4.21998C5.6501 2.78998 8.7501 3.42998 12.0001 5.55998C15.2501 3.42998 18.3501 2.78998 19.7801 4.21998C21.2101 5.64998 20.5701 8.74998 18.4401 12C20.5701 15.25 21.2101 18.35 19.7801 19.78C18.3501 21.21 15.2501 20.57 12.0001 18.44C8.7501 20.57 5.6501 21.21 4.2201 19.78C2.7901 18.35 3.4301 15.25 5.5601 12C3.4301 8.74998 2.7901 5.64998 4.2201 4.21998ZM15.5401 8.45998C16.1501 9.07998 16.7101 9.70998 17.2301 10.34C18.6101 8.20998 19.1101 6.37998 18.3601 5.63998C17.6201 4.88998 15.7901 5.38998 13.6601 6.76998C14.2901 7.28998 14.9201 7.84998 15.5401 8.45998ZM8.4601 15.54C7.8501 14.92 7.2901 14.29 6.7701 13.66C5.3901 15.79 4.8901 17.62 5.6401 18.36C6.3801 19.11 8.2101 18.61 10.3401 17.23C9.7101 16.71 9.0801 16.15 8.4601 15.54ZM5.6401 5.63998C4.8901 6.37998 5.3901 8.20998 6.7701 10.34C7.2901 9.70998 7.8501 9.07998 8.4601 8.45998C9.0801 7.84998 9.7101 7.28998 10.3401 6.76998C8.2101 5.38998 6.3801 4.88998 5.6401 5.63998ZM9.8801 14.12C10.5801 14.82 11.3001 15.46 12.0001 16.03C12.7001 15.46 13.4201 14.82 14.1201 14.12C14.8201 13.42 15.4601 12.7 16.0301 12C15.4601 11.3 14.8201 10.58 14.1201 9.87998C13.4201 9.17998 12.7001 8.53998 12.0001 7.96998C11.3001 8.53998 10.5801 9.17998 9.8801 9.87998C9.1801 10.58 8.5401 11.3 7.9701 12C8.5401 12.7 9.1801 13.42 9.8801 14.12ZM18.3601 18.36C19.1101 17.62 18.6101 15.79 17.2301 13.66C16.7101 14.29 16.1501 14.92 15.5401 15.54C14.9201 16.15 14.2901 16.71 13.6601 17.23C15.7901 18.61 17.6201 19.11 18.3601 18.36Z" fill="#111111"/>
</svg>
