<svg width="24" height="24" viewBox="0 0 24 24" fill="none" xmlns="http://www.w3.org/2000/svg">
<path fill-rule="evenodd" clip-rule="evenodd" d="M19.3598 4.94073C19.0337 4.61605 18.6133 4.40275 18.1587 4.3313C17.7041 4.25985 17.2385 4.33391 16.8285 4.5429C16.8053 4.50981 16.5884 4.27041 16.5032 4.18451C16.0972 3.77944 15.5471 3.55195 14.9735 3.55195C14.4 3.55195 13.8499 3.77944 13.4439 4.18451L9.59237 8.036C9.46037 8.16804 9.38621 8.3471 9.38621 8.53381C9.38621 8.72051 9.46037 8.89958 9.59237 9.03162C9.72548 9.16159 9.90414 9.23434 10.0902 9.23434C10.2762 9.23434 10.4549 9.16159 10.588 9.03162L14.4395 5.18012C14.5811 5.03854 14.7732 4.959 14.9735 4.959C15.1738 4.959 15.3659 5.03854 15.5076 5.18012L15.7653 5.43853L14.1987 7.00448C14.1303 7.0731 14.0919 7.16602 14.0919 7.26289C14.0919 7.35975 14.1303 7.45267 14.1987 7.5213L16.7799 10.0991C16.8483 10.1673 16.941 10.2057 17.0376 10.2057C17.1343 10.2057 17.227 10.1673 17.2954 10.0991L19.3598 8.03459C19.7697 7.62414 20 7.06776 20 6.48766C20 5.90756 19.7697 5.35118 19.3598 4.94073ZM13.4242 8.29505C13.3557 8.22673 13.2629 8.18836 13.1661 8.18836C13.0694 8.18836 12.9766 8.22673 12.9081 8.29505L7.11536 14.0892C7.01351 14.1908 6.93271 14.3115 6.87758 14.4444C6.82244 14.5774 6.79407 14.7198 6.79407 14.8637C6.79407 15.0076 6.82244 15.1501 6.87758 15.283C6.93271 15.4159 7.01351 15.5366 7.11536 15.6382L8.66441 17.1873C8.76604 17.2891 8.88677 17.3699 9.01967 17.4251C9.15257 17.4802 9.29505 17.5086 9.43893 17.5086C9.58282 17.5086 9.72529 17.4802 9.85819 17.4251C9.99109 17.3699 10.1118 17.2891 10.2135 17.1873L16.0069 11.3938C16.0752 11.3253 16.1136 11.2325 16.1136 11.1358C16.1136 11.039 16.0752 10.9462 16.0069 10.8777L13.4242 8.29505ZM5.81763 15.9673C5.87453 15.9839 5.92631 16.0146 5.96819 16.0566L8.39104 18.4801C8.43299 18.522 8.46369 18.5738 8.48029 18.6307C8.49689 18.6876 8.49885 18.7478 8.486 18.8056C8.47315 18.8635 8.4459 18.9172 8.40678 18.9617C8.36765 19.0062 8.31792 19.0402 8.26219 19.0603L4.46984 20.4291C4.40669 20.4509 4.33873 20.4546 4.27356 20.44C4.2084 20.4253 4.14861 20.3928 4.10088 20.346C4.05362 20.2988 4.02078 20.2391 4.00619 20.1739C3.9916 20.1087 3.99587 20.0407 4.0185 19.9778L5.388 16.1854C5.40818 16.1297 5.44211 16.08 5.48663 16.0409C5.53115 16.0017 5.58483 15.9745 5.6427 15.9616C5.70056 15.9488 5.76073 15.9507 5.81763 15.9673Z" fill="#6E41E2"/>
</svg>
